<svg xmlns="http://www.w3.org/2000/svg" viewBox="0 0 1620 840" width="100%" height="100%" style="background:#f8fafc; font-family: -apple-system, BlinkMacSystemFont, 'Segoe UI', Roboto, Helvetica, Arial, sans-serif;">
  <defs>
    <!-- Soft Container Gradients (Matching Screenshot 1) -->
    <linearGradient id="gradPreproc" x1="0%" y1="0%" x2="100%" y2="100%">
      <stop offset="0%" stop-color="#cffafe" stop-opacity="0.8" />
      <stop offset="100%" stop-color="#e0f2fe" stop-opacity="0.9" />
    </linearGradient>
    <linearGradient id="gradInference" x1="0%" y1="0%" x2="100%" y2="100%">
      <stop offset="0%" stop-color="#e0e7ff" stop-opacity="0.85" />
      <stop offset="100%" stop-color="#ede9fe" stop-opacity="0.9" />
    </linearGradient>
    <linearGradient id="gradResult" x1="0%" y1="0%" x2="100%" y2="100%">
      <stop offset="0%" stop-color="#f5d0fe" stop-opacity="0.75" />
      <stop offset="100%" stop-color="#fae8ff" stop-opacity="0.9" />
    </linearGradient>

    <!-- Card Icon Buttons (Sky Blue Gradient from Screenshot) -->
    <linearGradient id="cardBlue" x1="0%" y1="0%" x2="0%" y2="100%">
      <stop offset="0%" stop-color="#60a5fa" />
      <stop offset="100%" stop-color="#2563eb" />
    </linearGradient>
    <linearGradient id="cardTeal" x1="0%" y1="0%" x2="0%" y2="100%">
      <stop offset="0%" stop-color="#2dd4bf" />
      <stop offset="100%" stop-color="#0d9488" />
    </linearGradient>
    <linearGradient id="cardPurple" x1="0%" y1="0%" x2="0%" y2="100%">
      <stop offset="0%" stop-color="#c084fc" />
      <stop offset="100%" stop-color="#9333ea" />
    </linearGradient>
    <linearGradient id="cardDark" x1="0%" y1="0%" x2="0%" y2="100%">
      <stop offset="0%" stop-color="#334155" />
      <stop offset="100%" stop-color="#1e293b" />
    </linearGradient>
    <linearGradient id="cardRed" x1="0%" y1="0%" x2="0%" y2="100%">
      <stop offset="0%" stop-color="#f87171" />
      <stop offset="100%" stop-color="#dc2626" />
    </linearGradient>

    <!-- Card Shadows -->
    <filter id="softShadow" x="-10%" y="-10%" width="120%" height="120%">
      <feDropShadow dx="0" dy="4" stdDeviation="5" flood-color="#0f172a" flood-opacity="0.08"/>
    </filter>
    <filter id="btnShadow" x="-15%" y="-15%" width="130%" height="130%">
      <feDropShadow dx="0" dy="3" stdDeviation="3" flood-color="#1e3a8a" flood-opacity="0.22"/>
    </filter>

    <!-- Marker Arrow -->
    <marker id="arrow" markerWidth="8" markerHeight="6" refX="7" refY="3" orient="auto">
      <polygon points="0 0, 8 3, 0 6" fill="#0f172a" />
    </marker>
    <marker id="arrowDashed" markerWidth="8" markerHeight="6" refX="7" refY="3" orient="auto">
      <polygon points="0 0, 8 3, 0 6" fill="#475569" />
    </marker>
    <marker id="arrowRed" markerWidth="8" markerHeight="6" refX="7" refY="3" orient="auto">
      <polygon points="0 0, 8 3, 0 6" fill="#dc2626" />
    </marker>
  </defs>

  <!-- ========================================================================= -->
  <!-- LEFT: INPUT PASIEN / INPUT KOPERASI                                       -->
  <!-- ========================================================================= -->
  <g transform="translate(20, 360)">
    <rect width="84" height="84" rx="18" fill="url(#cardTeal)" filter="url(#btnShadow)" />
    <!-- Login / Ingress Icon -->
    <path d="M 32,26 L 52,26 C 56,26 58,28 58,32 L 58,52 C 58,56 56,58 52,58 L 32,58" fill="none" stroke="#ffffff" stroke-width="4" stroke-linecap="round" />
    <path d="M 22,42 L 44,42 M 36,34 L 44,42 L 36,50" fill="none" stroke="#ffffff" stroke-width="4" stroke-linecap="round" stroke-linejoin="round" />
    <text x="42" y="110" fill="#0f172a" font-size="13" font-weight="800" text-anchor="middle">Input Pasien /</text>
    <text x="42" y="126" fill="#0f172a" font-size="13" font-weight="800" text-anchor="middle">Koperasi</text>
  </g>

  <!-- Connect input to junction 1 -->
  <line x1="104" y1="402" x2="135" y2="402" stroke="#0f172a" stroke-width="2.5" />
  <circle cx="135" cy="402" r="6" fill="#0f172a" />

  <!-- Split line from junction 1 to 3 tracks -->
  <path d="M 135,402 L 135,165 L 165,165" fill="none" stroke="#0f172a" stroke-width="2.5" marker-end="url(#arrow)" />
  <line x1="135" y1="402" x2="165" y2="402" stroke="#0f172a" stroke-width="2.5" marker-end="url(#arrow)" />
  <path d="M 135,402 L 135,630 L 165,630" fill="none" stroke="#0f172a" stroke-width="2.5" marker-end="url(#arrow)" />


  <!-- ========================================================================= -->
  <!-- LAYER 1: PREPROCESSING LAYER (CYAN/TEAL CONTAINER)                        -->
  <!-- ========================================================================= -->
  <g transform="translate(150, 25)">
    <!-- Container -->
    <rect width="530" height="785" rx="24" fill="url(#gradPreproc)" stroke="#a5f3fc" stroke-width="2" filter="url(#softShadow)" />
    
    <!-- Header Pill -->
    <rect x="135" y="14" width="260" height="34" rx="17" fill="#cffafe" stroke="#67e8f9" stroke-width="1.5" />
    <text x="265" y="36" fill="#0891b2" font-size="14" font-weight="800" text-anchor="middle">Preprocessing Numerical Layer</text>

    <!-- ================= SUB-LAYER: NUMERICAL LAYER ================= -->
    <text x="265" y="80" fill="#0e7490" font-size="12" font-weight="700" text-anchor="middle">Data Transformasi Agronomi &amp; Plot</text>

    <!-- Item 1: Data Kesehatan / Data Lahan -->
    <g transform="translate(20, 95)">
      <rect width="66" height="66" rx="14" fill="url(#cardBlue)" filter="url(#btnShadow)" />
      <!-- Field icon -->
      <path d="M 22,46 L 33,24 L 44,46 Z M 31,46 L 39,32 L 47,46 Z" fill="none" stroke="#ffffff" stroke-width="3" stroke-linejoin="round"/>
      <text x="33" y="84" fill="#0f172a" font-size="11" font-weight="700" text-anchor="middle">Data Lahan</text>
      <text x="33" y="96" fill="#64748b" font-size="9" font-weight="600" text-anchor="middle">&amp; Varietas</text>
    </g>

    <line x1="86" y1="128" x2="118" y2="128" stroke="#0f172a" stroke-width="2" marker-end="url(#arrow)" />

    <!-- Item 2: Normalisasi -->
    <g transform="translate(120, 95)">
      <rect width="66" height="66" rx="14" fill="url(#cardBlue)" filter="url(#btnShadow)" />
      <!-- Funnel icon -->
      <path d="M 20,24 L 46,24 L 37,38 L 37,48 L 29,44 L 29,38 Z" fill="none" stroke="#ffffff" stroke-width="3" stroke-linejoin="round"/>
      <text x="33" y="84" fill="#0f172a" font-size="11" font-weight="700" text-anchor="middle">Normalisasi</text>
      <text x="33" y="96" fill="#64748b" font-size="9" font-weight="600" text-anchor="middle">Format &amp; Tipe</text>
    </g>

    <line x1="186" y1="128" x2="218" y2="128" stroke="#0f172a" stroke-width="2" marker-end="url(#arrow)" />

    <!-- Item 3: Anonimisasi Opaque Ref -->
    <g transform="translate(220, 95)">
      <rect width="66" height="66" rx="14" fill="url(#cardBlue)" filter="url(#btnShadow)" />
      <!-- Shield / Mask icon -->
      <path d="M 33,22 L 48,28 L 48,40 C 48,48 33,54 33,54 C 33,54 18,48 18,40 L 18,28 Z" fill="none" stroke="#ffffff" stroke-width="3" stroke-linejoin="round"/>
      <text x="33" y="84" fill="#0f172a" font-size="11" font-weight="700" text-anchor="middle">Opaque Ref</text>
      <text x="33" y="96" fill="#0284c7" font-size="9" font-weight="800" text-anchor="middle">(p1, v3, k1)</text>
    </g>

    <line x1="286" y1="128" x2="318" y2="128" stroke="#0f172a" stroke-width="2" marker-end="url(#arrow)" />

    <!-- Item 4: Rolling 7-D / Jendela Panen -->
    <g transform="translate(320, 95)">
      <rect width="66" height="66" rx="14" fill="url(#cardBlue)" filter="url(#btnShadow)" />
      <!-- Calendar icon -->
      <rect x="21" y="24" width="24" height="24" rx="4" fill="none" stroke="#ffffff" stroke-width="3" />
      <line x1="27" y1="20" x2="27" y2="26" stroke="#ffffff" stroke-width="3" stroke-linecap="round" />
      <line x1="39" y1="20" x2="39" y2="26" stroke="#ffffff" stroke-width="3" stroke-linecap="round" />
      <line x1="21" y1="32" x2="45" y2="32" stroke="#ffffff" stroke-width="2" />
      <text x="33" y="84" fill="#0f172a" font-size="11" font-weight="700" text-anchor="middle">Rolling 7-D</text>
      <text x="33" y="96" fill="#64748b" font-size="9" font-weight="600" text-anchor="middle">Jendela Panen</text>
    </g>

    <line x1="386" y1="128" x2="418" y2="128" stroke="#0f172a" stroke-width="2" marker-end="url(#arrow)" />

    <!-- Item 5: Slope 7-D / Rentang Tonase -->
    <g transform="translate(420, 95)">
      <rect width="66" height="66" rx="14" fill="url(#cardBlue)" filter="url(#btnShadow)" />
      <!-- Bar Chart icon -->
      <line x1="23" y1="48" x2="23" y2="38" stroke="#ffffff" stroke-width="4" stroke-linecap="round" />
      <line x1="33" y1="48" x2="33" y2="30" stroke="#ffffff" stroke-width="4" stroke-linecap="round" />
      <line x1="43" y1="48" x2="43" y2="22" stroke="#ffffff" stroke-width="4" stroke-linecap="round" />
      <text x="33" y="84" fill="#0f172a" font-size="11" font-weight="700" text-anchor="middle">Slope 7-D</text>
      <text x="33" y="96" fill="#64748b" font-size="9" font-weight="600" text-anchor="middle">Rentang Ton</text>
    </g>


    <!-- ================= SUB-LAYER: BASELINE PASIEN/KOPERASI ================= -->
    <g transform="translate(20, 240)">
      <rect width="488" height="195" rx="16" fill="#e0f2fe" stroke="#7dd3fc" stroke-width="1.5" />
      <rect x="144" y="10" width="200" height="26" rx="13" fill="#bae6fd" />
      <text x="244" y="27" fill="#0369a1" font-size="12" font-weight="800" text-anchor="middle">Data Baseline Pasien / Koperasi</text>
      
      <!-- Baseline parameters grid -->
      <g transform="translate(20, 50)">
        <!-- Box 1 -->
        <rect width="96" height="52" rx="8" fill="#ffffff" stroke="#93c5fd" stroke-width="1.2" />
        <text x="48" y="22" fill="#0369a1" font-size="10" font-weight="800" text-anchor="middle">Kapasitas</text>
        <text x="48" y="38" fill="#0f172a" font-size="11" font-weight="700" text-anchor="middle">Gudang / Wk</text>

        <!-- Box 2 -->
        <rect x="110" width="105" height="52" rx="8" fill="#ffffff" stroke="#93c5fd" stroke-width="1.2" />
        <text x="162" y="22" fill="#0369a1" font-size="10" font-weight="800" text-anchor="middle">Target Kuota</text>
        <text x="162" y="38" fill="#0f172a" font-size="11" font-weight="700" text-anchor="middle">Kontrak Pasar</text>

        <!-- Box 3 -->
        <rect x="228" width="105" height="52" rx="8" fill="#ffffff" stroke="#93c5fd" stroke-width="1.2" />
        <text x="280" y="22" fill="#0369a1" font-size="10" font-weight="800" text-anchor="middle">Panel Harga</text>
        <text x="280" y="38" fill="#0f172a" font-size="11" font-weight="700" text-anchor="middle">Acuan Rp/Kg</text>

        <!-- Box 4 -->
        <rect x="345" width="100" height="52" rx="8" fill="#ffffff" stroke="#93c5fd" stroke-width="1.2" />
        <text x="395" y="22" fill="#0369a1" font-size="10" font-weight="800" text-anchor="middle">Rentang</text>
        <text x="395" y="38" fill="#0f172a" font-size="11" font-weight="700" text-anchor="middle">Musim Tanam</text>
      </g>

      <!-- Baseline description -->
      <text x="244" y="130" fill="#0369a1" font-size="11" font-weight="700" text-anchor="middle">Setara dengan parameter klinis baseline pada rekam medis:</text>
      <text x="244" y="152" fill="#475569" font-size="11" font-weight="600" text-anchor="middle">HbA1c &nbsp;•&nbsp; UACR &nbsp;•&nbsp; Profil Lipid &nbsp;•&nbsp; eGFR &nbsp;•&nbsp; BMI &nbsp;•&nbsp; Tensi Baseline</text>
      <text x="244" y="174" fill="#0284c7" font-size="10" font-weight="700" text-anchor="middle">Membatasi ruang solusi optimasi agar tidak melampaui daya tampung riil</text>
    </g>


    <!-- ================= SUB-LAYER: TEXTUAL LAYER ================= -->
    <rect x="135" y="465" width="260" height="30" rx="15" fill="#cffafe" stroke="#67e8f9" stroke-width="1.5" />
    <text x="265" y="485" fill="#0891b2" font-size="13" font-weight="800" text-anchor="middle">Preprocessing Textual Layer</text>

    <!-- Text Item 1: Chat Makanan / Chat Goal -->
    <g transform="translate(20, 520)">
      <rect width="66" height="66" rx="14" fill="url(#cardBlue)" filter="url(#btnShadow)" />
      <!-- Chat icon -->
      <path d="M 22,26 C 22,22 44,22 44,26 C 44,38 34,40 30,46 L 28,40 L 22,40 Z" fill="none" stroke="#ffffff" stroke-width="3" stroke-linejoin="round"/>
      <text x="33" y="84" fill="#0f172a" font-size="11" font-weight="700" text-anchor="middle">Chat Goal</text>
      <text x="33" y="96" fill="#64748b" font-size="9" font-weight="600" text-anchor="middle">Bebas</text>
    </g>

    <line x1="86" y1="553" x2="118" y2="553" stroke="#0f172a" stroke-width="2" marker-end="url(#arrow)" />

    <!-- Text Item 2: Label Encoding / Parsing -->
    <g transform="translate(120, 520)">
      <rect width="66" height="66" rx="14" fill="url(#cardBlue)" filter="url(#btnShadow)" />
      <!-- Label tag icon -->
      <path d="M 23,35 L 34,23 L 45,23 L 45,34 L 34,46 Z" fill="none" stroke="#ffffff" stroke-width="3" stroke-linejoin="round"/>
      <circle cx="39" cy="29" r="2" fill="#ffffff" />
      <text x="33" y="84" fill="#0f172a" font-size="11" font-weight="700" text-anchor="middle">Label</text>
      <text x="33" y="96" fill="#64748b" font-size="9" font-weight="600" text-anchor="middle">Encoding</text>
    </g>

    <line x1="186" y1="553" x2="218" y2="553" stroke="#0f172a" stroke-width="2" marker-end="url(#arrow)" />

    <!-- Text Item 3: Subword Tokenization / Clamping Guard -->
    <g transform="translate(220, 520)">
      <rect width="66" height="66" rx="14" fill="url(#cardBlue)" filter="url(#btnShadow)" />
      <!-- Text / ab icon -->
      <text x="33" y="42" fill="#ffffff" font-size="22" font-weight="900" text-anchor="middle">ab</text>
      <text x="33" y="84" fill="#0f172a" font-size="11" font-weight="700" text-anchor="middle">Subword</text>
      <text x="33" y="96" fill="#64748b" font-size="9" font-weight="600" text-anchor="middle">Tokenize</text>
    </g>

    <line x1="286" y1="553" x2="318" y2="553" stroke="#0f172a" stroke-width="2" marker-end="url(#arrow)" />

    <!-- Text Item 4: Tokenisasi / Guard Filter -->
    <g transform="translate(320, 520)">
      <rect width="66" height="66" rx="14" fill="url(#cardBlue)" filter="url(#btnShadow)" />
      <!-- Hash icon -->
      <text x="33" y="44" fill="#ffffff" font-size="26" font-weight="900" text-anchor="middle">#</text>
      <text x="33" y="84" fill="#0f172a" font-size="11" font-weight="700" text-anchor="middle">Tokenisasi</text>
      <text x="33" y="96" fill="#64748b" font-size="9" font-weight="600" text-anchor="middle">&amp; Clamping</text>
    </g>

    <line x1="386" y1="553" x2="418" y2="553" stroke="#0f172a" stroke-width="2" marker-end="url(#arrow)" />

    <!-- Text Item 5: Scaling / Bobot Normalization -->
    <g transform="translate(420, 520)">
      <rect width="66" height="66" rx="14" fill="url(#cardBlue)" filter="url(#btnShadow)" />
      <!-- Scaling icon -->
      <rect x="22" y="24" width="16" height="16" rx="3" fill="none" stroke="#ffffff" stroke-width="2.5" />
      <rect x="30" y="32" width="16" height="16" rx="3" fill="none" stroke="#ffffff" stroke-width="2.5" />
      <text x="33" y="84" fill="#0f172a" font-size="11" font-weight="700" text-anchor="middle">Scaling</text>
      <text x="33" y="96" fill="#64748b" font-size="9" font-weight="600" text-anchor="middle">Bobot (&ge;0.35)</text>
    </g>

    <!-- Out flow from tracks to junction 2 -->
    <path d="M 486,128 L 515,128 L 515,377" fill="none" stroke="#0f172a" stroke-width="2" />
    <path d="M 508,337 L 515,337 L 515,377" fill="none" stroke="#0f172a" stroke-width="2" />
    <path d="M 486,553 L 515,553 L 515,377" fill="none" stroke="#0f172a" stroke-width="2" />
  </g>

  <!-- Central Junction Node 2 -->
  <circle cx="680" cy="402" r="7" fill="#0f172a" />
  <line x1="680" y1="402" x2="710" y2="402" stroke="#0f172a" stroke-width="2.5" marker-end="url(#arrow)" />


  <!-- ========================================================================= -->
  <!-- LAYER 2: MODEL INFERENCE / OPTIMIZATION LAYER (BLUE CONTAINER)             -->
  <!-- ========================================================================= -->
  <g transform="translate(710, 25)">
    <!-- Container -->
    <rect width="470" height="785" rx="24" fill="url(#gradInference)" stroke="#c7d2fe" stroke-width="2" filter="url(#softShadow)" />
    
    <!-- Header Pill -->
    <rect x="115" y="14" width="240" height="34" rx="17" fill="#e0e7ff" stroke="#a5b4fc" stroke-width="1.5" />
    <text x="235" y="36" fill="#4338ca" font-size="14" font-weight="800" text-anchor="middle">Model Inference Layer</text>

    <!-- TOP ROW: CACHING & FALLBACK LLM / GREEDY -->
    <!-- Database + TPKI / Greedy -->
    <g transform="translate(30, 80)">
      <rect width="60" height="60" rx="14" fill="url(#cardDark)" filter="url(#btnShadow)" />
      <!-- Database cylinders -->
      <ellipse cx="30" cy="20" rx="16" ry="6" fill="none" stroke="#ffffff" stroke-width="2.5"/>
      <path d="M 14,20 L 14,32 C 14,36 46,36 46,32 L 46,20" fill="none" stroke="#ffffff" stroke-width="2.5"/>
      <path d="M 14,32 L 14,44 C 14,48 46,48 46,44 L 46,32" fill="none" stroke="#ffffff" stroke-width="2.5"/>
      <text x="30" y="78" fill="#0f172a" font-size="11" font-weight="700" text-anchor="middle">Database +</text>
      <text x="30" y="90" fill="#0f172a" font-size="11" font-weight="700" text-anchor="middle">Greedy Solver</text>
    </g>

    <!-- Caching Redis -->
    <g transform="translate(130, 80)">
      <rect width="60" height="60" rx="14" fill="url(#cardDark)" filter="url(#btnShadow)" />
      <!-- Server / Cache icon -->
      <rect x="16" y="18" width="28" height="24" rx="4" fill="none" stroke="#ffffff" stroke-width="2.5"/>
      <line x1="16" y1="30" x2="44" y2="30" stroke="#ffffff" stroke-width="2" />
      <circle cx="36" cy="36" r="2.5" fill="#38bdf8" />
      <text x="30" y="78" fill="#0f172a" font-size="11" font-weight="700" text-anchor="middle">Caching</text>
      <text x="30" y="90" fill="#64748b" font-size="9" font-weight="600" text-anchor="middle">(Redis 6 Jam)</text>
    </g>

    <!-- Fallback LLM -->
    <g transform="translate(230, 80)">
      <rect width="60" height="60" rx="14" fill="url(#cardBlue)" filter="url(#btnShadow)" />
      <!-- Star / Gemini Spark icon -->
      <path d="M 30,16 L 33,26 L 43,30 L 33,34 L 30,44 L 27,34 L 17,30 L 27,26 Z" fill="#ffffff" />
      <text x="30" y="78" fill="#0f172a" font-size="11" font-weight="700" text-anchor="middle">Fallback LLM</text>
      <text x="30" y="90" fill="#64748b" font-size="9" font-weight="600" text-anchor="middle">(Gemini API)</text>
    </g>

    <!-- Connectors for Caching & Fallback -->
    <path d="M 90,110 L 128,110" stroke="#0f172a" stroke-width="2" marker-start="url(#arrowDashed)" marker-end="url(#arrowDashed)" />
    <path d="M 190,110 L 228,110" stroke="#0f172a" stroke-width="2" marker-start="url(#arrowDashed)" marker-end="url(#arrowDashed)" />
    <path d="M 60,145 L 60,210" stroke="#0f172a" stroke-width="2" marker-start="url(#arrowDashed)" marker-end="url(#arrowDashed)" />

    <!-- PRIMARY NODE: NER + IndoBERT / OR-Tools CP-SAT -->
    <g transform="translate(25, 215)">
      <rect width="72" height="72" rx="16" fill="url(#cardBlue)" filter="url(#btnShadow)" />
      <!-- Document / Brain icon -->
      <rect x="22" y="18" width="28" height="36" rx="4" fill="none" stroke="#ffffff" stroke-width="3" />
      <line x1="28" y1="26" x2="44" y2="26" stroke="#ffffff" stroke-width="2.5" stroke-linecap="round" />
      <line x1="28" y1="34" x2="44" y2="34" stroke="#ffffff" stroke-width="2.5" stroke-linecap="round" />
      <line x1="28" y1="42" x2="38" y2="42" stroke="#ffffff" stroke-width="2.5" stroke-linecap="round" />
      <text x="36" y="94" fill="#0f172a" font-size="11" font-weight="800" text-anchor="middle">NER +</text>
      <text x="36" y="106" fill="#1e40af" font-size="10" font-weight="800" text-anchor="middle">IndoBERT /</text>
      <text x="36" y="118" fill="#1e40af" font-size="10" font-weight="800" text-anchor="middle">CP-SAT</text>
    </g>

    <line x1="97" y1="251" x2="128" y2="251" stroke="#0f172a" stroke-width="2.5" marker-end="url(#arrow)" />

    <!-- FUSION NODE -->
    <g transform="translate(130, 215)">
      <rect width="72" height="72" rx="16" fill="url(#cardBlue)" filter="url(#btnShadow)" />
      <!-- Fusion icon -->
      <circle cx="26" cy="26" r="5" fill="#ffffff" />
      <circle cx="26" cy="46" r="5" fill="#ffffff" />
      <circle cx="48" cy="36" r="6" fill="#ffffff" />
      <path d="M 31,26 L 43,36 L 31,46" fill="none" stroke="#ffffff" stroke-width="3" stroke-linecap="round" stroke-linejoin="round" />
      <text x="36" y="94" fill="#0f172a" font-size="12" font-weight="800" text-anchor="middle">Fusion</text>
      <text x="36" y="108" fill="#64748b" font-size="9" font-weight="600" text-anchor="middle">Seleksi Plan</text>
    </g>

    <line x1="202" y1="251" x2="238" y2="251" stroke="#0f172a" stroke-width="2.5" marker-end="url(#arrow)" />

    <!-- XGBOOST MODEL -->
    <g transform="translate(240, 215)">
      <rect width="74" height="72" rx="16" fill="url(#cardBlue)" filter="url(#btnShadow)" />
      <!-- Brain / Tree icon -->
      <circle cx="37" cy="24" r="5" fill="#ffffff" />
      <circle cx="24" cy="44" r="5" fill="#ffffff" />
      <circle cx="50" cy="44" r="5" fill="#ffffff" />
      <line x1="37" y1="29" x2="24" y2="39" stroke="#ffffff" stroke-width="2.5" />
      <line x1="37" y1="29" x2="50" y2="39" stroke="#ffffff" stroke-width="2.5" />
      <text x="37" y="94" fill="#0f172a" font-size="11" font-weight="800" text-anchor="middle">XGBoost /</text>
      <text x="37" y="106" fill="#1e40af" font-size="10" font-weight="800" text-anchor="middle">Monte Carlo</text>
    </g>

    <!-- SHAP (Above XGBoost) -->
    <g transform="translate(240, 115)">
      <rect width="74" height="58" rx="14" fill="url(#cardDark)" filter="url(#btnShadow)" />
      <!-- Parallel lines / SHAP bars -->
      <line x1="24" y1="20" x2="24" y2="38" stroke="#ffffff" stroke-width="3.5" stroke-linecap="round" />
      <line x1="32" y1="16" x2="32" y2="42" stroke="#ffffff" stroke-width="3.5" stroke-linecap="round" />
      <line x1="40" y1="24" x2="40" y2="34" stroke="#ffffff" stroke-width="3.5" stroke-linecap="round" />
      <line x1="48" y1="18" x2="48" y2="40" stroke="#ffffff" stroke-width="3.5" stroke-linecap="round" />
      <text x="37" y="74" fill="#0f172a" font-size="10" font-weight="800" text-anchor="middle">SHAP Values</text>
      <text x="37" y="85" fill="#64748b" font-size="8.5" font-weight="600" text-anchor="middle">Explanations</text>
    </g>

    <path d="M 277,175 L 277,210" stroke="#0f172a" stroke-width="2" marker-start="url(#arrow)" marker-end="url(#arrow)" />

    <!-- SKOR KESEHATAN 1-100 / METRIK (Below XGBoost) -->
    <g transform="translate(240, 360)">
      <rect width="74" height="68" rx="16" fill="url(#cardBlue)" filter="url(#btnShadow)" />
      <!-- Speedometer / Gauge icon -->
      <path d="M 20,44 A 18,18 0 0 1 54,44" fill="none" stroke="#ffffff" stroke-width="4" stroke-linecap="round" />
      <line x1="37" y1="44" x2="46" y2="30" stroke="#ffffff" stroke-width="3.5" stroke-linecap="round" />
      <circle cx="37" cy="44" r="3" fill="#ffffff" />
      <text x="37" y="88" fill="#0f172a" font-size="10" font-weight="800" text-anchor="middle">Skor Rencana</text>
      <text x="37" y="100" fill="#0f172a" font-size="10" font-weight="800" text-anchor="middle">1 - 100 &amp; P90</text>
    </g>

    <line x1="277" y1="287" x2="277" y2="355" stroke="#0f172a" stroke-width="2.5" marker-end="url(#arrow)" />

    <!-- PARALLEL GENERATIVE & GUARD PIPELINE (Bottom Half) -->
    <rect x="25" y="490" width="420" height="270" rx="18" fill="#e0e7ff" stroke="#a5b4fc" stroke-width="1.5" />
    <rect x="125" y="502" width="220" height="26" rx="13" fill="#c7d2fe" />
    <text x="235" y="520" fill="#3730a3" font-size="12" font-weight="800" text-anchor="middle">Explainability &amp; Guardrail System</text>

    <!-- Sub-node 1: Ekstraksi Fakta -->
    <g transform="translate(45, 545)">
      <rect width="64" height="64" rx="14" fill="url(#cardBlue)" filter="url(#btnShadow)" />
      <!-- List icon -->
      <line x1="22" y1="26" x2="42" y2="26" stroke="#ffffff" stroke-width="3" stroke-linecap="round" />
      <line x1="22" y1="34" x2="42" y2="34" stroke="#ffffff" stroke-width="3" stroke-linecap="round" />
      <line x1="22" y1="42" x2="34" y2="42" stroke="#ffffff" stroke-width="3" stroke-linecap="round" />
      <text x="32" y="82" fill="#0f172a" font-size="10" font-weight="700" text-anchor="middle">Ekstraksi</text>
      <text x="32" y="93" fill="#64748b" font-size="9" font-weight="600" text-anchor="middle">Fakta Sah</text>
    </g>

    <line x1="109" y1="577" x2="148" y2="577" stroke="#0f172a" stroke-width="2" marker-end="url(#arrow)" />

    <!-- Sub-node 2: Narasi LLM -->
    <g transform="translate(150, 545)">
      <rect width="64" height="64" rx="14" fill="url(#cardBlue)" filter="url(#btnShadow)" />
      <!-- Chat robot / sparkle -->
      <path d="M 32,20 L 35,28 L 43,31 L 35,34 L 32,42 L 29,34 L 21,31 L 29,28 Z" fill="#ffffff" />
      <text x="32" y="82" fill="#0f172a" font-size="10" font-weight="700" text-anchor="middle">Narasi</text>
      <text x="32" y="93" fill="#64748b" font-size="9" font-weight="600" text-anchor="middle">LLM Async</text>
    </g>

    <line x1="214" y1="577" x2="253" y2="577" stroke="#0f172a" stroke-width="2" marker-end="url(#arrow)" />

    <!-- Sub-node 3: Penjaga Angka (Guard) -->
    <g transform="translate(255, 545)">
      <rect width="64" height="64" rx="14" fill="url(#cardRed)" filter="url(#btnShadow)" />
      <!-- Shield lock / guard -->
      <path d="M 32,18 L 46,24 L 46,34 C 46,42 32,48 32,48 C 32,48 18,42 18,34 L 18,24 Z" fill="none" stroke="#ffffff" stroke-width="3" stroke-linejoin="round"/>
      <line x1="26" y1="32" x2="38" y2="32" stroke="#ffffff" stroke-width="3" />
      <text x="32" y="82" fill="#b91c1c" font-size="10" font-weight="800" text-anchor="middle">Guardrail</text>
      <text x="32" y="93" fill="#7f1d1d" font-size="9" font-weight="700" text-anchor="middle">Penjaga Angka</text>
    </g>

    <line x1="319" y1="577" x2="358" y2="577" stroke="#0f172a" stroke-width="2" marker-end="url(#arrow)" />

    <!-- Sub-node 4: Template Fallback -->
    <g transform="translate(360, 545)">
      <rect width="64" height="64" rx="14" fill="url(#cardDark)" filter="url(#btnShadow)" />
      <!-- Document stamp icon -->
      <rect x="22" y="22" width="20" height="22" rx="3" fill="none" stroke="#ffffff" stroke-width="2.5" />
      <path d="M 28,34 L 32,38 L 40,30" fill="none" stroke="#ffffff" stroke-width="2.5" />
      <text x="32" y="82" fill="#0f172a" font-size="10" font-weight="700" text-anchor="middle">Fallback</text>
      <text x="32" y="93" fill="#64748b" font-size="9" font-weight="600" text-anchor="middle">Templat</text>
    </g>

    <text x="235" y="668" fill="#4338ca" font-size="11" font-weight="700" text-anchor="middle">Zero-Hallucination Policy: Satu angka meleset dari fakta terhitung</text>
    <text x="235" y="688" fill="#b91c1c" font-size="11" font-weight="800" text-anchor="middle">&rarr; Seluruh narasi LLM dibuang &amp; diganti kalimat templat otomatis</text>

    <!-- Out flow from Layer 2 to Result Layer -->
    <path d="M 314,251 L 440,251 L 440,394" fill="none" stroke="#0f172a" stroke-width="2.5" />
    <path d="M 314,394 L 440,394" fill="none" stroke="#0f172a" stroke-width="2.5" />
    <path d="M 424,577 L 440,577 L 440,394" fill="none" stroke="#0f172a" stroke-width="2.5" />
  </g>

  <!-- Junction Node 3 -->
  <circle cx="1175" cy="419" r="7" fill="#0f172a" />
  <line x1="1175" y1="419" x2="1208" y2="419" stroke="#0f172a" stroke-width="2.5" marker-end="url(#arrow)" />


  <!-- ========================================================================= -->
  <!-- LAYER 3: RESULT LAYER (PURPLE CONTAINER)                                   -->
  <!-- ========================================================================= -->
  <g transform="translate(1210, 25)">
    <!-- Container -->
    <rect width="380" height="785" rx="24" fill="url(#gradResult)" stroke="#e9d5ff" stroke-width="2" filter="url(#softShadow)" />
    
    <!-- Header Pill -->
    <rect x="100" y="14" width="180" height="34" rx="17" fill="#fae8ff" stroke="#f0abfc" stroke-width="1.5" />
    <text x="190" y="36" fill="#86198f" font-size="14" font-weight="800" text-anchor="middle">Result Layer</text>

    <!-- Node 1: Rule-Based Threshold -->
    <g transform="translate(35, 125)">
      <rect width="70" height="70" rx="16" fill="url(#cardPurple)" filter="url(#btnShadow)" />
      <!-- Slider / filter icon -->
      <line x1="20" y1="28" x2="50" y2="28" stroke="#ffffff" stroke-width="3" stroke-linecap="round" />
      <circle cx="28" cy="28" r="4" fill="#ffffff" />
      <line x1="20" y1="42" x2="50" y2="42" stroke="#ffffff" stroke-width="3" stroke-linecap="round" />
      <circle cx="42" cy="42" r="4" fill="#ffffff" />
      <text x="35" y="92" fill="#0f172a" font-size="11" font-weight="800" text-anchor="middle">Rule-Based</text>
      <text x="35" y="104" fill="#701a75" font-size="10" font-weight="700" text-anchor="middle">Threshold</text>
    </g>

    <line x1="105" y1="160" x2="148" y2="160" stroke="#0f172a" stroke-width="2.5" marker-end="url(#arrow)" />

    <!-- Node 2: Zero-Trust Go Recalculation -->
    <g transform="translate(150, 125)">
      <rect width="70" height="70" rx="16" fill="url(#cardPurple)" filter="url(#btnShadow)" />
      <!-- Shield / Check icon -->
      <path d="M 35,18 L 52,26 L 52,40 C 52,50 35,58 35,58 C 35,58 18,50 18,40 L 18,26 Z" fill="none" stroke="#ffffff" stroke-width="3" stroke-linejoin="round"/>
      <path d="M 28,38 L 33,43 L 43,33" fill="none" stroke="#ffffff" stroke-width="3" stroke-linecap="round" stroke-linejoin="round"/>
      <text x="35" y="92" fill="#0f172a" font-size="11" font-weight="800" text-anchor="middle">Validasi</text>
      <text x="35" y="104" fill="#701a75" font-size="10" font-weight="700" text-anchor="middle">Zero-Trust</text>
    </g>

    <line x1="220" y1="160" x2="263" y2="160" stroke="#0f172a" stroke-width="2.5" marker-end="url(#arrow)" />

    <!-- Node 3: De-anonymisasi ke UUID -->
    <g transform="translate(265, 125)">
      <rect width="70" height="70" rx="16" fill="url(#cardPurple)" filter="url(#btnShadow)" />
      <!-- Key / Unmask icon -->
      <circle cx="30" cy="30" r="8" fill="none" stroke="#ffffff" stroke-width="3" />
      <path d="M 36,36 L 48,48 M 44,44 L 48,40 M 40,48 L 44,44" stroke="#ffffff" stroke-width="3" stroke-linecap="round" />
      <text x="35" y="92" fill="#0f172a" font-size="11" font-weight="800" text-anchor="middle">De-anonym</text>
      <text x="35" y="104" fill="#701a75" font-size="10" font-weight="700" text-anchor="middle">ke UUID Asli</text>
    </g>

    <path d="M 300,195 L 300,245 L 190,245 L 190,270" fill="none" stroke="#0f172a" stroke-width="2.5" marker-end="url(#arrow)" />

    <!-- Node 4: Klasifikasi (Aman / Waswas / Bahaya -> Rencana Tanam) -->
    <g transform="translate(148, 275)">
      <rect width="84" height="74" rx="16" fill="url(#cardPurple)" filter="url(#btnShadow)" />
      <!-- Pulse / Waveform icon -->
      <path d="M 18,37 L 28,37 L 34,22 L 42,50 L 50,32 L 56,37 L 66,37" fill="none" stroke="#ffffff" stroke-width="3.5" stroke-linecap="round" stroke-linejoin="round"/>
      <text x="42" y="96" fill="#0f172a" font-size="12" font-weight="900" text-anchor="middle">Klasifikasi</text>
      <text x="42" y="110" fill="#701a75" font-size="11" font-weight="800" text-anchor="middle">(Aman / Waswas / Bahaya)</text>
    </g>

    <line x1="190" y1="390" x2="190" y2="435" stroke="#0f172a" stroke-width="2.5" marker-end="url(#arrow)" />

    <!-- 3 OUTPUT CARDS (Direct mapping to Aman / Waswas / Bahaya) -->
    <!-- Card 1: Rencana Aman -->
    <g transform="translate(30, 440)">
      <rect width="320" height="90" rx="16" fill="#ecfdf5" stroke="#10b981" stroke-width="2.5" filter="url(#softShadow)" />
      <circle cx="34" cy="45" r="16" fill="#10b981" />
      <path d="M 27,45 L 32,50 L 41,39" fill="none" stroke="#ffffff" stroke-width="3" stroke-linecap="round" stroke-linejoin="round" />
      <text x="62" y="36" fill="#065f46" font-size="14" font-weight="900">1. Rencana "Aman"</text>
      <text x="62" y="54" fill="#047857" font-size="11" font-weight="700">Skor Puncak P90 Terendah (Batas Atas)</text>
      <text x="62" y="70" fill="#0f766e" font-size="10" font-weight="600">Gudang dijamin muat di 9 dari 10 musim ekstrim</text>
    </g>

    <!-- Card 2: Rencana Pendapatan -->
    <g transform="translate(30, 545)">
      <rect width="320" height="90" rx="16" fill="#eff6ff" stroke="#3b82f6" stroke-width="2.5" filter="url(#softShadow)" />
      <circle cx="34" cy="45" r="16" fill="#3b82f6" />
      <text x="34" y="52" fill="#ffffff" font-size="18" font-weight="900" text-anchor="middle">Rp</text>
      <text x="62" y="36" fill="#1e40af" font-size="14" font-weight="900">2. Rencana "Pendapatan"</text>
      <text x="62" y="54" fill="#1d4ed8" font-size="11" font-weight="700">Maksimalisasi Nilai Kotor Rupiah Penjualan</text>
      <text x="62" y="70" fill="#2563eb" font-size="10" font-weight="600">Fokus komoditas bernilai tinggi di jendela panen prima</text>
    </g>

    <!-- Card 3: Rencana Pasar -->
    <g transform="translate(30, 650)">
      <rect width="320" height="90" rx="16" fill="#fefce8" stroke="#eab308" stroke-width="2.5" filter="url(#softShadow)" />
      <circle cx="34" cy="45" r="16" fill="#eab308" />
      <path d="M 28,39 L 40,39 M 28,45 L 40,45 M 28,51 L 36,51" stroke="#ffffff" stroke-width="2.5" stroke-linecap="round" />
      <text x="62" y="36" fill="#854d0e" font-size="14" font-weight="900">3. Rencana "Pasar"</text>
      <text x="62" y="54" fill="#a16207" font-size="11" font-weight="700">Cakupan Kontrak Pembeli Tertinggi (Kg)</text>
      <text x="62" y="70" fill="#b45309" font-size="10" font-weight="600">Menghindari pinalti wanprestasi offtaker &amp; mitra</text>
    </g>
  </g>
</svg>
